<svg width="879" height="826" viewBox="0 0 879 826" fill="none" xmlns="http://www.w3.org/2000/svg">
<path d="M475 -5.38826e-05C555 -5.38826e-05 625.667 16.9999 687 50.9999C748.333 84.9999 795.667 132 829 192C862.333 252 879 320 879 396C879 474 853.667 546 803 612C753 678 690.667 730.333 616 769C541.333 807 470.667 826 404 826C324 826 253.333 809.333 192 776C131.333 742 84 695 50 635C16.6667 575 7.45058e-07 507 7.45058e-07 431C7.45058e-07 353 25 281 75 215C125.667 148.333 188.333 96 263 58C337.667 19.3333 408.333 -5.38826e-05 475 -5.38826e-05ZM417 134C383.667 134 353 145 325 167C297.667 188.333 275.667 218 259 256C243 294 235 336.333 235 383C235 439.667 243.333 491.333 260 538C276.667 584.667 302 622 336 650C370.667 678 412.667 692 462 692C495.333 692 525.667 681.333 553 660C581 638 603 608 619 570C635.667 532 644 489.667 644 443C644 385.667 635.667 333.667 619 287C602.333 240.333 577 203.333 543 176C509 148 467 134 417 134Z" fill="#0284C7" fill-opacity="0.05"/>
</svg>
